<svg width="900" height="600" viewBox="0 0 900 600" fill="none" xmlns="http://www.w3.org/2000/svg">
<g clip-path="url(#clip0_105_195)">
<path opacity="0.76" fill-rule="evenodd" clip-rule="evenodd" d="M696 212.5C696 123.858 624.142 52 535.5 52C446.858 52 375 123.858 375 212.5C375 301.142 446.858 373 535.5 373C624.142 373 696 301.142 696 212.5ZM435 212.5C435 156.995 479.995 112 535.5 112C591.005 112 636 156.995 636 212.5C636 268.005 591.005 313 535.5 313C479.995 313 435 268.005 435 212.5Z" fill="url(#paint0_linear_105_195)"/>
<path opacity="0.76" fill-rule="evenodd" clip-rule="evenodd" d="M584 334.5C584 309.371 563.629 289 538.5 289C513.371 289 493 309.371 493 334.5C493 359.629 513.371 380 538.5 380C563.629 380 584 359.629 584 334.5ZM523 334.5C523 325.94 529.94 319 538.5 319C547.06 319 554 325.94 554 334.5C554 343.06 547.06 350 538.5 350C529.94 350 523 343.06 523 334.5Z" fill="url(#paint1_linear_105_195)"/>
<path d="M194.5 223C210.24 223 223 210.24 223 194.5C223 178.76 210.24 166 194.5 166C178.76 166 166 178.76 166 194.5C166 210.24 178.76 223 194.5 223Z" fill="url(#paint2_linear_105_195)"/>
<path d="M288 144C305.673 144 320 129.673 320 112C320 94.3269 305.673 80 288 80C270.327 80 256 94.3269 256 112C256 129.673 270.327 144 288 144Z" fill="url(#paint3_linear_105_195)"/>
<g filter="url(#filter0_f_105_195)">
<path d="M665 459C682.673 459 697 444.673 697 427C697 409.327 682.673 395 665 395C647.327 395 633 409.327 633 427C633 444.673 647.327 459 665 459Z" fill="url(#paint4_linear_105_195)"/>
</g>
<path d="M706.859 314.23H357.141C346.784 314.23 339 307.234 339 299.304V115.157C339 107.226 346.784 100.23 357.141 100.23H706.859C717.216 100.23 725 107.226 725 115.157V299.304C725 307.234 717.216 314.23 706.859 314.23Z" fill="white" stroke="#E1E4E5" stroke-width="4"/>
<path fill-rule="evenodd" clip-rule="evenodd" d="M370.59 162.214V230.808C370.59 234.532 373.571 237.547 377.252 237.547H417.631L435.256 212.423C436.097 211.225 438.198 211.225 439.038 212.423L445.209 221.221L445.257 221.289L445.299 221.229L458.533 202.013C459.448 200.683 461.742 200.683 462.657 202.013L480.184 227.465V162.214C480.184 158.491 477.195 155.476 473.521 155.476H377.252C373.571 155.476 370.59 158.491 370.59 162.214Z" fill="black"/>
<path d="M401.497 202.195C395.068 202.195 389.856 196.983 389.856 190.554C389.856 184.125 395.068 178.913 401.497 178.913C407.926 178.913 413.137 184.125 413.137 190.554C413.137 196.983 407.926 202.195 401.497 202.195Z" fill="white"/>
<path d="M725 123.465H339V118.141C339 108.124 347.124 100 357.141 100H706.859C716.876 100 725 108.124 725 118.141V123.465Z" fill="white" stroke="#E1E4E5" stroke-width="4"/>
<path d="M357.178 116.941C358.325 116.941 359.426 116.485 360.237 115.674C361.048 114.863 361.504 113.762 361.504 112.615C361.504 111.468 361.048 110.367 360.237 109.556C359.426 108.745 358.325 108.289 357.178 108.289C356.031 108.289 354.93 108.745 354.119 109.556C353.308 110.367 352.852 111.468 352.852 112.615C352.852 113.762 353.308 114.863 354.119 115.674C354.93 116.485 356.031 116.941 357.178 116.941ZM375.201 116.941C376.348 116.941 377.448 116.485 378.259 115.674C379.07 114.863 379.526 113.763 379.526 112.616C379.526 111.469 379.07 110.369 378.259 109.558C377.448 108.747 376.348 108.291 375.201 108.291C374.054 108.291 372.954 108.747 372.143 109.558C371.332 110.369 370.876 111.469 370.876 112.616C370.876 113.763 371.332 114.863 372.143 115.674C372.954 116.485 374.054 116.941 375.201 116.941ZM392.503 116.941C393.65 116.941 394.751 116.485 395.562 115.674C396.373 114.863 396.829 113.762 396.829 112.615C396.829 111.468 396.373 110.367 395.562 109.556C394.751 108.745 393.65 108.289 392.503 108.289C391.356 108.289 390.255 108.745 389.444 109.556C388.633 110.367 388.177 111.468 388.177 112.615C388.177 113.762 388.633 114.863 389.444 115.674C390.255 116.485 391.356 116.941 392.503 116.941Z" fill="#E1E4E5"/>
<path d="M686.708 155.476H504.576C500.66 155.476 497.485 158.651 497.485 162.567C497.485 166.483 500.66 169.658 504.576 169.658H686.708C690.624 169.658 693.799 166.483 693.799 162.567C693.799 158.651 690.624 155.476 686.708 155.476Z" fill="#E1E4E5"/>
<path d="M686.708 188.32H504.576C500.66 188.32 497.485 191.495 497.485 195.411C497.485 199.327 500.66 202.502 504.576 202.502H686.708C690.624 202.502 693.799 199.327 693.799 195.411C693.799 191.495 690.624 188.32 686.708 188.32Z" fill="#E1E4E5"/>
<path d="M676 221H504C500.134 221 497 224.134 497 228C497 231.866 500.134 235 504 235H676C679.866 235 683 231.866 683 228C683 224.134 679.866 221 676 221Z" fill="#E1E4E5"/>
<path d="M686.708 254.006H504.576C500.66 254.006 497.485 257.181 497.485 261.097C497.485 265.013 500.66 268.188 504.576 268.188H686.708C690.624 268.188 693.799 265.013 693.799 261.097C693.799 257.181 690.624 254.006 686.708 254.006Z" fill="#E1E4E5"/>
<path fill-rule="evenodd" clip-rule="evenodd" d="M286.071 415.086C286.659 415.003 287.258 415.038 287.832 415.188C288.406 415.338 288.945 415.602 289.417 415.962C289.889 416.322 290.284 416.773 290.581 417.288C290.877 417.802 291.067 418.371 291.142 418.96L306.876 543.133C307.023 544.291 306.705 545.46 305.991 546.383C305.276 547.306 304.224 547.907 303.066 548.055C301.909 548.202 300.74 547.883 299.817 547.169C298.894 546.455 298.292 545.403 298.145 544.245L282.251 420.093C282.101 418.924 282.418 417.742 283.133 416.805C283.848 415.868 284.904 415.25 286.071 415.086Z" fill="white" stroke="#E1E4E5" stroke-width="4" stroke-linecap="round" stroke-linejoin="round"/>
<path fill-rule="evenodd" clip-rule="evenodd" d="M287.87 415.086C287.282 415.003 286.683 415.038 286.109 415.188C285.535 415.339 284.996 415.602 284.524 415.962C284.052 416.323 283.656 416.773 283.36 417.288C283.064 417.803 282.873 418.371 282.798 418.96L267.064 543.133C266.917 544.291 267.235 545.46 267.95 546.383C268.664 547.306 269.716 547.908 270.874 548.055C272.032 548.202 273.201 547.884 274.124 547.169C275.047 546.455 275.649 545.403 275.796 544.245L291.69 420.093C291.84 418.924 291.523 417.743 290.808 416.806C290.093 415.868 289.037 415.251 287.87 415.086ZM335.37 415.086C335.958 415.003 336.557 415.038 337.131 415.188C337.706 415.339 338.244 415.602 338.716 415.962C339.188 416.323 339.584 416.773 339.88 417.288C340.176 417.803 340.367 418.371 340.442 418.96L356.176 543.133C356.324 544.291 356.005 545.46 355.29 546.383C354.576 547.306 353.524 547.908 352.366 548.055C351.208 548.202 350.039 547.884 349.116 547.169C348.193 546.455 347.592 545.403 347.444 544.245L331.55 420.093C331.4 418.924 331.718 417.743 332.433 416.806C333.148 415.868 334.203 415.251 335.37 415.086ZM236.223 415.086C235.635 415.003 235.036 415.038 234.462 415.188C233.887 415.338 233.349 415.601 232.877 415.962C232.405 416.322 232.009 416.773 231.713 417.288C231.417 417.802 231.226 418.371 231.151 418.96L215.417 543.133C215.27 544.291 215.588 545.46 216.303 546.383C217.017 547.306 218.069 547.907 219.227 548.055C219.8 548.128 220.382 548.087 220.94 547.935C221.497 547.783 222.019 547.523 222.476 547.169C223.399 546.455 224.001 545.403 224.148 544.245L240.043 420.093C240.193 418.924 239.876 417.743 239.161 416.806C238.446 415.868 237.39 415.251 236.223 415.086Z" fill="white" stroke="#E1E4E5" stroke-width="4" stroke-linecap="round" stroke-linejoin="round"/>
<path fill-rule="evenodd" clip-rule="evenodd" d="M346.365 435.468C354.079 435.468 360.333 429.214 360.333 421.5C360.333 413.785 354.079 407.532 346.365 407.532H315.922C293.008 407.532 273.855 390.098 271.707 367.284L266.664 313.729C265.017 296.239 250.334 282.874 232.767 282.874C212.934 282.874 197.299 299.758 198.82 319.532L204.187 389.303C206.191 415.353 227.913 435.468 254.04 435.468H346.365Z" fill="white" stroke="#E1E4E5" stroke-width="4" stroke-linecap="round" stroke-linejoin="round"/>
<path fill-rule="evenodd" clip-rule="evenodd" d="M360.333 421.165C360.332 421.223 360.309 421.278 360.268 421.319C360.227 421.36 360.172 421.383 360.114 421.383H268.115C241.993 421.383 220.272 401.273 218.263 375.228L212.907 305.791C212.784 304.209 212.772 302.62 212.869 301.036C213.463 291.396 221.419 283.488 231.061 282.931C231.721 282.893 232.387 282.874 233.057 282.874C250.579 282.874 265.224 296.201 266.871 313.645L271.913 367.035C274.062 389.791 293.168 407.177 316.025 407.177H346.401C354.095 407.177 360.333 413.415 360.333 421.109V421.165Z" fill="white"/>
<path d="M268.115 419.383H360.114V423.383H268.115V419.383ZM220.257 375.074C222.186 400.078 243.037 419.383 268.115 419.383V423.383C240.948 423.383 218.359 402.469 216.269 375.382L220.257 375.074ZM214.901 305.638L220.257 375.074L216.269 375.382L210.913 305.945L214.901 305.638ZM214.865 301.159C214.774 302.651 214.786 304.148 214.901 305.638L210.913 305.945C210.783 304.271 210.77 302.589 210.873 300.913L214.865 301.159ZM233.057 284.874C232.426 284.874 231.798 284.892 231.176 284.928L230.946 280.934C231.644 280.894 232.349 280.874 233.057 280.874V284.874ZM264.88 313.833C263.33 297.417 249.547 284.874 233.057 284.874V280.874C251.61 280.874 267.118 294.986 268.863 313.457L264.88 313.833ZM269.922 367.223L264.88 313.833L268.863 313.457L273.904 366.847L269.922 367.223ZM316.025 409.177C292.136 409.177 272.168 391.006 269.922 367.223L273.904 366.847C275.956 388.575 294.2 405.177 316.025 405.177V409.177ZM346.401 409.177H316.025V405.177H346.401V409.177ZM358.333 421.109C358.333 414.519 352.991 409.177 346.401 409.177V405.177C355.2 405.177 362.333 412.31 362.333 421.109H358.333ZM358.333 421.157V421.109H362.333V421.173L358.333 421.157ZM210.873 300.913C211.529 290.26 220.295 281.55 230.946 280.934L231.176 284.928C222.543 285.426 215.397 292.532 214.865 301.159L210.873 300.913ZM360.114 419.383C359.133 419.383 358.337 420.176 358.333 421.157L362.333 421.173C362.331 421.76 362.096 422.322 361.68 422.736C361.264 423.15 360.701 423.383 360.114 423.383V419.383Z" fill="#E1E4E5"/>
<path d="M676.245 357.41C677.192 357.41 677.953 356.649 677.968 355.716C678.298 337.716 663.872 329.921 663.254 329.591C662.847 329.378 662.372 329.336 661.933 329.473C661.495 329.61 661.128 329.916 660.915 330.323C660.703 330.729 660.659 331.202 660.793 331.64C660.928 332.078 661.229 332.446 661.632 332.663C661.661 332.677 665.006 334.472 668.235 338.218C672.513 343.17 674.623 349.041 674.494 355.659C674.487 356.117 674.661 356.559 674.978 356.889C675.296 357.22 675.73 357.412 676.188 357.424C676.216 357.41 676.231 357.41 676.245 357.41ZM681.814 312.725C681.814 312.725 701.896 274.844 629.851 248.289C626.134 246.925 622.373 250.198 623.263 254.059C627.813 273.782 642.727 319.888 681.814 312.725Z" fill="black"/>
<path d="M701.58 353.979C701.666 353.979 701.752 353.979 701.824 353.965C702.049 353.932 702.266 353.855 702.462 353.738C702.657 353.622 702.828 353.468 702.964 353.285C703.1 353.102 703.198 352.895 703.254 352.674C703.31 352.453 703.321 352.223 703.288 351.998C698.293 317.534 672.613 301.514 669.713 299.792C668.895 299.304 667.819 299.562 667.331 300.38C667.095 300.772 667.025 301.242 667.135 301.686C667.245 302.13 667.527 302.513 667.919 302.749L667.962 302.763C669.182 303.481 675.584 307.443 682.474 315.165C691.977 325.845 697.833 338.39 699.872 352.472C700.001 353.362 700.733 353.979 701.58 353.979Z" fill="black"/>
<path d="M691.002 353.979H691.088C691.546 353.956 691.976 353.753 692.285 353.414C692.594 353.076 692.757 352.629 692.739 352.171C692.05 337.429 701.409 323.979 701.495 323.835C701.757 323.459 701.86 322.995 701.782 322.544C701.704 322.093 701.452 321.69 701.079 321.424C700.703 321.162 700.239 321.058 699.788 321.136C699.336 321.214 698.933 321.467 698.667 321.84C698.251 322.428 688.533 336.41 689.28 352.328C689.298 352.772 689.488 353.192 689.809 353.5C690.13 353.808 690.557 353.979 691.002 353.979ZM686.035 356.52H686.078C686.306 356.514 686.53 356.464 686.737 356.371C686.945 356.279 687.133 356.146 687.289 355.98C687.445 355.815 687.567 355.62 687.647 355.407C687.727 355.194 687.765 354.967 687.757 354.74L686.279 298.658C686.274 298.431 686.223 298.206 686.13 297.999C686.038 297.791 685.905 297.603 685.739 297.447C685.574 297.291 685.379 297.169 685.166 297.088C684.953 297.008 684.727 296.97 684.499 296.978C684.272 296.984 684.048 297.034 683.84 297.127C683.632 297.219 683.445 297.352 683.288 297.518C683.132 297.683 683.011 297.878 682.93 298.091C682.85 298.304 682.812 298.531 682.82 298.758L684.298 354.826C684.311 355.279 684.5 355.708 684.824 356.025C685.148 356.341 685.582 356.518 686.035 356.52Z" fill="black"/>
<path d="M698.064 324.797C698.064 324.797 738.93 337.788 752.179 262.14C752.868 258.236 748.964 255.136 745.318 256.7C726.729 264.695 684.025 287.619 698.064 324.797ZM671.594 339.352C671.594 339.352 634.862 361.472 604.416 290.964C602.852 287.332 605.923 283.399 609.828 284.074C629.766 287.548 676.618 299.935 671.594 339.352Z" fill="black"/>
<path d="M678.326 318.05C681.168 323.936 689.752 323.29 691.704 317.046C700.417 289.227 715.016 230.26 684.785 223.484C650.881 215.891 662.235 284.777 678.326 318.05Z" fill="black"/>
<path d="M685.303 321.826H685.346C685.595 321.815 685.83 321.707 685.999 321.524C686.169 321.341 686.259 321.098 686.25 320.849L683.064 242.001C683.06 241.877 683.031 241.756 682.98 241.643C682.929 241.531 682.855 241.429 682.765 241.345C682.674 241.261 682.567 241.196 682.451 241.153C682.335 241.111 682.212 241.092 682.088 241.097C681.839 241.107 681.604 241.216 681.435 241.399C681.265 241.581 681.175 241.824 681.183 242.073L684.356 320.921C684.37 321.424 684.786 321.826 685.303 321.826ZM670.576 339.467C670.716 339.468 670.854 339.437 670.981 339.378C671.108 339.318 671.219 339.231 671.308 339.123C671.638 338.721 671.581 338.118 671.179 337.802L627.513 302.06C627.111 301.73 626.508 301.787 626.192 302.189C626.114 302.284 626.054 302.394 626.018 302.512C625.982 302.63 625.97 302.754 625.982 302.876C625.994 302.999 626.03 303.118 626.088 303.227C626.146 303.336 626.226 303.432 626.321 303.51L669.987 339.252C670.153 339.389 670.361 339.465 670.576 339.467Z" fill="black"/>
<path d="M651.954 350.276C646.078 350.276 641.704 355.702 642.952 361.443L643.755 365.075L645.435 372.783L646.224 376.429L646.5 377.688C650.471 395.851 666.554 408.798 685.146 408.798C703.738 408.798 719.822 395.851 723.793 377.688L724.068 376.429L724.857 372.783L726.537 365.075L727.326 361.443C728.58 355.705 724.209 350.276 718.335 350.276H651.954ZM734.444 491.96H633.864C633.711 491.961 633.56 491.931 633.418 491.873C633.277 491.815 633.148 491.73 633.04 491.621C632.932 491.513 632.846 491.385 632.788 491.244C632.73 491.102 632.7 490.951 632.701 490.798V484.97C632.701 484.324 633.218 483.807 633.864 483.807H734.458C735.104 483.807 735.621 484.324 735.621 484.97V490.798C735.617 491.107 735.491 491.403 735.271 491.62C735.05 491.838 734.753 491.96 734.444 491.96Z" fill="white" stroke="#E1E4E5" stroke-width="4" stroke-linecap="round" stroke-linejoin="round"/>
<path d="M660.759 410.715C665.556 410.715 668.979 415.365 667.554 419.945L628.547 545.686C628.242 546.658 627.577 547.477 626.687 547.973C625.797 548.469 624.751 548.606 623.764 548.354C622.776 548.102 621.923 547.482 621.38 546.62C620.836 545.759 620.643 544.721 620.841 543.722L645.176 422.572L645.864 419.148C646.342 416.769 647.629 414.63 649.506 413.093C651.383 411.555 653.734 410.715 656.16 410.715H660.759ZM747.914 543.722C748.117 544.723 747.928 545.765 747.384 546.63C746.841 547.496 745.986 548.119 744.996 548.372C744.006 548.624 742.956 548.486 742.065 547.986C741.174 547.486 740.509 546.663 740.208 545.686L700.01 416.141C699.176 413.447 701.19 410.715 704.01 410.715H718.252C719.958 410.715 721.428 411.915 721.771 413.586L747.914 543.722Z" fill="white" stroke="#E1E4E5" stroke-width="4" stroke-linecap="round" stroke-linejoin="round"/>
<path d="M637.879 409.28H731.306C732.861 409.28 734.115 410.965 734.115 413.053V428.473C734.115 430.561 732.861 432.247 731.306 432.247H637.879C636.325 432.247 635.071 430.561 635.071 428.473V413.053C635.071 410.965 636.325 409.28 637.879 409.28Z" fill="white" stroke="#E1E4E5" stroke-width="4" stroke-linecap="round" stroke-linejoin="round"/>
<path fill-rule="evenodd" clip-rule="evenodd" d="M369.928 500.533C369.928 500.533 362.148 516.248 368.526 521.2C374.914 526.153 391.788 535.435 391.788 535.435L347.084 532.626L357.021 498.352L369.928 500.533Z" fill="#F8AE9D"/>
<path fill-rule="evenodd" clip-rule="evenodd" d="M351.511 514.753C352.918 515.425 350.605 521.739 355.555 521.295C360.503 520.853 363.61 514.326 367.259 514.75C370.909 515.173 373.226 521.745 380.174 526.323C387.121 530.902 397.422 536.362 396.732 540.966C396.042 545.569 379.832 546.802 371.619 545.278C363.407 543.755 359.574 540.454 354.246 540.717C348.918 540.98 345.57 540.328 343.899 536.907C342.23 533.485 349.888 513.978 351.511 514.753ZM302.585 362.024C316.119 362.628 391.445 379.289 405.13 382.119C418.816 384.95 430.386 400.266 419.95 418.001C408.229 437.909 377.987 494.449 370.644 507.195C367.01 513.503 348.675 509.966 352.982 499.378C361.01 479.639 364.739 430.054 385.207 411.975C385.207 411.975 316.371 423.955 286.637 410.232C265.027 400.257 269.916 360.563 302.585 362.024Z" fill="black"/>
<path fill-rule="evenodd" clip-rule="evenodd" d="M396.998 277.544C396.998 277.544 396.845 269.498 400.697 263.743C404.549 257.988 404.702 251.875 407.618 252.075C410.533 252.275 407.646 266.484 407.646 266.484C407.646 266.484 411.345 265.071 414.002 263.283C416.66 261.496 424.717 252.684 426.6 254.245C429.793 256.906 424.65 271.914 421.85 274.915C419.04 277.916 405.172 286.303 405.172 286.303L364.332 327.447L358.226 305.605L396.998 277.544Z" fill="#F8AE9D"/>
<path fill-rule="evenodd" clip-rule="evenodd" d="M315.309 273.911C321.605 288.513 333.132 315.338 337.885 323.341C343.84 333.363 353.231 337.779 364.227 330.343C366.527 328.787 373.134 323.345 373.134 323.345C372.157 313.82 368.598 305.858 362.463 299.457L358.297 302.904C358.297 302.904 346.482 272.616 336.978 255.071C328.746 239.892 305.726 251.713 315.309 273.911ZM288.1 217.231V230.152L278.612 222.512C278.612 222.512 275.695 210.133 273.323 200.939C271.836 195.173 268.212 175.66 282.801 176.574C294.752 155.507 329.558 168.546 329.835 194.284C330.168 225.24 329.896 237.293 329.896 237.293C310.214 238.422 299.136 235.577 288.1 217.231Z" fill="black"/>
<path fill-rule="evenodd" clip-rule="evenodd" d="M278.407 241.832C278.407 241.832 287.234 239.76 287.54 225.297C287.846 210.835 287.631 205.898 287.631 205.898L307.074 205.547C307.074 205.547 307.285 221.666 307.288 227.496C307.297 241.671 317.721 242.833 317.721 242.833C317.721 242.833 315.939 254.529 298.322 255.519C284.567 256.294 278.407 241.832 278.407 241.832Z" fill="#F8AE9D"/>
<path fill-rule="evenodd" clip-rule="evenodd" d="M283.099 198.676C274.426 198.34 275.84 211.037 284.85 211.02C284.85 211.02 290.083 229.056 308.251 229.056C323.006 229.056 323.966 208.035 324.1 203.841C324.244 199.37 324.262 184.68 324.262 184.68L282.761 184.661L283.099 198.676Z" fill="#F8AE9D"/>
<path fill-rule="evenodd" clip-rule="evenodd" d="M282.428 198.593C286.022 199.185 285.586 201.565 286.563 201.357C291.526 200.302 311.615 201.694 314.202 190.647C317.42 197.548 318.207 199.245 325.294 201.098V180.874L280.469 176.574C280.469 176.574 281.164 198.383 282.428 198.593Z" fill="black"/>
<path fill-rule="evenodd" clip-rule="evenodd" d="M280.379 240.353C291.456 247.137 304.262 249.624 316.182 242.257C335.636 280.616 340.484 326.383 335.805 376.967C307.438 388.198 283.596 385.989 263.299 373.153L280.379 240.353Z" fill="black"/>
<path fill-rule="evenodd" clip-rule="evenodd" d="M418.419 501.164C418.419 501.164 418.184 519.66 433.425 526.576C448.657 533.491 459.509 533.074 458.128 538.421C456.747 543.766 417.1 543.55 413.398 539.369C410.242 535.813 403.38 502.694 401.49 505.226L418.419 501.164Z" fill="#F8AE9D"/>
<path fill-rule="evenodd" clip-rule="evenodd" d="M407.35 527.285C409.685 525.605 411.649 535.297 417.994 532.601C424.338 529.907 419.335 520.999 423.328 519.356C427.321 517.712 435.031 526.546 445.271 528.693C455.511 530.839 463.825 532.718 466.188 536.703C468.223 540.129 466.188 541.224 466.188 541.224C466.188 541.224 456.33 546.147 450.205 547.23C441.306 548.804 415.587 549.853 412.769 546.983C411.039 545.222 406.182 528.127 407.35 527.285ZM260.181 356.306C260.181 356.306 240.505 397.859 268.156 412.128C294.896 425.927 374.949 409.606 374.949 409.606C374.949 409.606 373.519 421.123 374.949 431.395C378.685 458.222 396.453 502.918 400.213 508.534C405.411 516.3 421.248 510.443 421.546 503.976C421.844 497.51 409.608 414.918 407.747 399.169C405.896 383.418 400.051 381.13 382.981 376.825C379.059 375.836 332.684 364.311 328.435 364.646C291.932 367.533 260.181 356.306 260.181 356.306Z" fill="black"/>
<path fill-rule="evenodd" clip-rule="evenodd" d="M280.863 240.384C299.208 300.479 310.21 385.678 252.916 370.856C283.351 314.819 241.976 289.598 251.354 260.637C254.56 250.735 280.624 239.607 280.863 240.384ZM315.211 241.836C322.212 259.395 325.577 273.172 328.716 298.945C331.335 320.41 330.024 364.706 330.024 364.706L338.676 366.407C338.676 366.407 344.86 297.973 342.793 289.161C339.323 274.375 336.972 265.736 332.39 252.219C329.866 244.8 315.211 241.836 315.211 241.836Z" fill="black"/>
<path fill-rule="evenodd" clip-rule="evenodd" d="M284.715 308.607C284.715 308.607 296.011 297.297 299.923 295.984C303.835 294.672 325.263 293.095 325.118 296.061C324.954 299.238 311.165 299.056 309.89 300.619C308.615 302.181 306.842 314.348 302.022 315.548C297.212 316.748 287.241 320.299 287.241 320.299L242.856 343.232L247.585 320.3L284.715 308.607Z" fill="#F8AE9D"/>
<path fill-rule="evenodd" clip-rule="evenodd" d="M250.719 260.72C237.256 279.721 225.761 308.664 221.349 319.948C216.937 331.233 221.388 348.253 240.789 344.911C243.099 344.514 246.857 343.052 246.857 343.052C253.99 333.273 255.242 324.877 252.579 317.402L250.07 318.461C250.07 318.461 269.353 284.281 274.062 275.118C281.927 259.816 262.578 243.978 250.719 260.72Z" fill="black"/>
<path d="M306.483 546.164C308.097 546.164 309.663 545.614 310.923 544.604C312.182 543.594 313.06 542.186 313.412 540.61L351.679 368.96C352.668 364.521 349.291 360.309 344.744 360.309C343.128 360.309 341.56 360.859 340.3 361.87C339.039 362.881 338.16 364.291 337.809 365.868L299.553 537.52C298.565 541.955 301.939 546.164 306.483 546.164ZM603.382 546.164C601.768 546.164 600.201 545.614 598.942 544.604C597.682 543.595 596.804 542.186 596.453 540.61L558.184 368.952C557.195 364.518 560.569 360.309 565.113 360.309C566.727 360.309 568.293 360.859 569.553 361.869C570.812 362.879 571.69 364.287 572.042 365.863L610.311 537.52C611.299 541.955 607.925 546.164 603.382 546.164Z" fill="white" stroke="#E1E4E5" stroke-width="4" stroke-linecap="round" stroke-linejoin="round"/>
<path fill-rule="evenodd" clip-rule="evenodd" d="M604.4 360.626V354.17C604.4 350.465 602.507 347.462 600.182 347.444H307.045C304.707 347.444 302.827 350.465 302.827 354.17V360.626C302.827 364.349 304.719 367.352 307.045 367.352H316.358C317.284 367.352 318.201 367.534 319.057 367.888C319.912 368.243 320.69 368.762 321.344 369.417C321.999 370.072 322.519 370.849 322.873 371.704C323.227 372.56 323.41 373.477 323.41 374.403C323.41 375.583 324.369 376.533 325.554 376.533H589.412C590.585 376.533 591.544 375.583 591.544 374.403C591.544 373.477 591.726 372.56 592.081 371.704C592.435 370.849 592.955 370.072 593.609 369.417C594.264 368.762 595.042 368.243 595.897 367.888C596.753 367.534 597.67 367.352 598.596 367.352H600.182C602.52 367.352 604.4 364.349 604.4 360.626Z" fill="white"/>
<path d="M600.182 347.444L600.197 345.444H600.182V347.444ZM602.4 354.17V360.626H606.4V354.17H602.4ZM600.166 349.444C600.404 349.446 600.917 349.609 601.469 350.488C602.004 351.34 602.4 352.636 602.4 354.17H606.4C606.4 351.999 605.849 349.941 604.857 348.36C603.881 346.807 602.285 345.46 600.197 345.444L600.166 349.444ZM307.045 349.444H600.182V345.444H307.045V349.444ZM304.827 354.17C304.827 352.633 305.221 351.331 305.755 350.478C306.305 349.598 306.812 349.444 307.045 349.444V345.444C304.939 345.444 303.338 346.8 302.363 348.357C301.373 349.94 300.827 352.002 300.827 354.17H304.827ZM304.827 360.626V354.17H300.827V360.626H304.827ZM307.045 365.352C306.816 365.352 306.308 365.199 305.757 364.321C305.223 363.471 304.827 362.171 304.827 360.626H300.827C300.827 362.804 301.376 364.866 302.37 366.449C303.347 368.003 304.948 369.352 307.045 369.352V365.352ZM316.358 365.352H307.045V369.352H316.358V365.352ZM325.554 374.533C325.459 374.533 325.41 374.464 325.41 374.403H321.41C321.41 376.702 323.28 378.533 325.554 378.533V374.533ZM589.412 374.533H325.554V378.533H589.412V374.533ZM589.544 374.403C589.544 374.471 589.488 374.533 589.412 374.533V378.533C590.507 378.533 591.558 378.098 592.333 377.323C593.108 376.549 593.543 375.499 593.544 374.403H589.544ZM600.182 365.352H598.596V369.352H600.182V365.352ZM602.4 360.626C602.4 362.173 602.005 363.474 601.473 364.323C600.925 365.196 600.419 365.352 600.182 365.352V369.352C602.283 369.352 603.885 368.006 604.862 366.447C605.855 364.864 606.4 362.801 606.4 360.626H602.4ZM593.544 374.403C593.544 373.74 593.675 373.083 593.928 372.47C594.182 371.857 594.555 371.3 595.024 370.831C595.493 370.362 596.05 369.99 596.663 369.736C597.276 369.482 597.933 369.352 598.596 369.352V365.352C596.195 365.352 593.893 366.306 592.196 368.003C590.498 369.7 589.544 372.002 589.544 374.403H593.544ZM316.358 369.352C317.021 369.352 317.678 369.482 318.291 369.736C318.904 369.99 319.461 370.362 319.93 370.831C320.399 371.3 320.771 371.857 321.025 372.47C321.279 373.083 321.41 373.74 321.41 374.403H325.41C325.41 372.002 324.456 369.7 322.758 368.003C321.061 366.306 318.758 365.352 316.358 365.352V369.352Z" fill="#E1E4E5"/>
<path d="M167.631 263.262C164.521 263.262 162 260.741 162 257.631C162 254.521 164.521 252 167.631 252C170.741 252 173.262 254.521 173.262 257.631C173.262 260.741 170.741 263.262 167.631 263.262Z" fill="black"/>
<path d="M169.959 375.832C170.675 378.501 169.091 381.244 166.422 381.959C163.753 382.674 161.01 381.09 160.294 378.421C159.579 375.752 161.163 373.009 163.832 372.294C166.501 371.579 169.244 373.163 169.959 375.832Z" fill="#E1E4E5"/>
<path d="M242.655 157.31C238.98 157.31 236 154.33 236 150.655C236 146.98 238.98 144 242.655 144C246.331 144 249.31 146.98 249.31 150.655C249.31 154.33 246.331 157.31 242.655 157.31Z" fill="#E1E4E5"/>
<path d="M764.735 232.011C764.735 235.172 762.172 237.735 759.011 237.735C755.85 237.735 753.287 235.172 753.287 232.011C753.287 228.85 755.85 226.287 759.011 226.287C762.172 226.287 764.735 228.85 764.735 232.011Z" fill="#E1E4E5"/>
<path d="M210.429 119H210.567C211.385 130.432 220 130.608 220 130.608C220 130.608 210.5 130.791 210.5 144C210.5 130.791 201 130.608 201 130.608C201 130.608 209.612 130.432 210.429 119Z" fill="#E1E4E5"/>
</g>
<defs>
<filter id="filter0_f_105_195" x="624.846" y="386.846" width="80.308" height="80.308" filterUnits="userSpaceOnUse" color-interpolation-filters="sRGB">
<feFlood flood-opacity="0" result="BackgroundImageFix"/>
<feBlend mode="normal" in="SourceGraphic" in2="BackgroundImageFix" result="shape"/>
<feGaussianBlur stdDeviation="4.077" result="effect1_foregroundBlur_105_195"/>
</filter>
<linearGradient id="paint0_linear_105_195" x1="542.344" y1="552.971" x2="532.446" y2="-297.193" gradientUnits="userSpaceOnUse">
<stop stop-color="white"/>
<stop offset="1" stop-color="#EEEEEE"/>
</linearGradient>
<linearGradient id="paint1_linear_105_195" x1="540.44" y1="431.02" x2="537.634" y2="190.007" gradientUnits="userSpaceOnUse">
<stop stop-color="white"/>
<stop offset="1" stop-color="#EEEEEE"/>
</linearGradient>
<linearGradient id="paint2_linear_105_195" x1="195.715" y1="254.957" x2="193.958" y2="103.994" gradientUnits="userSpaceOnUse">
<stop stop-color="white"/>
<stop offset="1" stop-color="#EEEEEE"/>
</linearGradient>
<linearGradient id="paint3_linear_105_195" x1="289.365" y1="179.882" x2="287.391" y2="10.379" gradientUnits="userSpaceOnUse">
<stop stop-color="white"/>
<stop offset="1" stop-color="#EEEEEE"/>
</linearGradient>
<linearGradient id="paint4_linear_105_195" x1="666.365" y1="494.882" x2="664.391" y2="325.379" gradientUnits="userSpaceOnUse">
<stop stop-color="white"/>
<stop offset="1" stop-color="#EEEEEE"/>
</linearGradient>
<clipPath id="clip0_105_195">
<rect width="900" height="600" fill="white"/>
</clipPath>
</defs>
</svg>
